<svg xmlns="http://www.w3.org/2000/svg" xmlns:xlink="http://www.w3.org/1999/xlink" width="1080" zoomAndPan="magnify" viewBox="0 0 810 225" height="300" preserveAspectRatio="xMidYMid meet" version="1.0"><defs><g/><clipPath id="50dfbea98b"><path d="M 638 22.5 L 791 22.5 L 791 128 L 638 128 Z M 638 22.5 " clip-rule="nonzero"/></clipPath><clipPath id="8aada9da9d"><path d="M 625.34375 138 L 731 138 L 731 176 L 625.34375 176 Z M 625.34375 138 " clip-rule="nonzero"/></clipPath><clipPath id="214a3ae247"><path d="M 22.5 63 L 126 63 L 126 68 L 22.5 68 Z M 22.5 63 " clip-rule="nonzero"/></clipPath><clipPath id="28b41ab22e"><path d="M 22.5 63 L 27 63 L 27 184.242188 L 22.5 184.242188 Z M 22.5 63 " clip-rule="nonzero"/></clipPath></defs><g clip-path="url(#50dfbea98b)"><path fill="#cc9933" d="M 638.40625 127.414062 C 638.40625 127.414062 633.90625 90.589844 681.695312 78.0625 C 729.480469 65.535156 785.296875 56.265625 789.433594 22.503906 C 789.433594 22.503906 801.132812 65.355469 744.847656 91.460938 C 702.097656 111.289062 651.15625 97.734375 638.40625 127.414062 " fill-opacity="1" fill-rule="nonzero"/></g><path fill="#cc9933" d="M 628.484375 158.59375 C 628.484375 158.59375 627.667969 125.019531 671.828125 117.9375 C 715.984375 110.855469 767.089844 107.414062 773.789062 77.359375 C 773.789062 77.359375 780.558594 116.992188 727.546875 135.566406 C 687.289062 149.671875 642.585938 132.976562 628.484375 158.59375 " fill-opacity="1" fill-rule="nonzero"/><g clip-path="url(#8aada9da9d)"><path fill="#cc9933" d="M 625.351562 175.382812 C 625.351562 175.382812 628.691406 153.234375 658.507812 153.683594 C 688.324219 154.128906 722.285156 157.769531 730.152344 138.808594 C 730.152344 138.808594 730.023438 165.617188 693.066406 171.691406 C 664.996094 176.308594 637.566406 160.183594 625.351562 175.382812 " fill-opacity="1" fill-rule="nonzero"/></g><g clip-path="url(#214a3ae247)"><path fill="#545454" d="M 24.484375 63.40625 C 24.484375 63.40625 125.664062 65.304688 125.664062 65.304688 C 125.664062 65.304688 24.484375 67.203125 24.484375 67.203125 C 23.4375 67.222656 22.574219 66.390625 22.550781 65.339844 C 22.527344 64.269531 23.414062 63.386719 24.484375 63.40625 Z M 24.484375 63.40625 " fill-opacity="1" fill-rule="nonzero"/></g><g clip-path="url(#28b41ab22e)"><path fill="#545454" d="M 26.382812 65.304688 C 26.382812 65.304688 24.484375 184.492188 24.484375 184.492188 C 24.484375 184.492188 22.589844 65.304688 22.589844 65.304688 C 22.652344 62.757812 26.308594 62.734375 26.382812 65.304688 Z M 26.382812 65.304688 " fill-opacity="1" fill-rule="nonzero"/></g><g fill="#545454" fill-opacity="1"><g transform="translate(32.293163, 172.170982)"><g><path d="M 57.4375 -85.859375 L 92.203125 0 L 71.171875 0 L 64.734375 -17.171875 L 32.046875 -17.171875 L 25.8125 0 L 4.78125 0 L 39.328125 -85.859375 Z M 58.0625 -34.34375 L 48.28125 -59.3125 L 38.71875 -34.34375 Z M 58.0625 -34.34375 "/></g></g></g><g fill="#545454" fill-opacity="1"><g transform="translate(129.167826, 172.170982)"><g><path d="M 6.765625 -85.859375 L 38.09375 -85.859375 C 44.957031 -85.710938 50.539062 -84.351562 54.84375 -81.78125 C 59.144531 -79.21875 62.300781 -75.941406 64.3125 -71.953125 C 66.320312 -67.960938 67.328125 -63.785156 67.328125 -59.421875 C 67.253906 -55.046875 66.503906 -51.332031 65.078125 -48.28125 C 63.660156 -45.226562 61.753906 -42.695312 59.359375 -40.6875 C 56.972656 -38.675781 54.359375 -37.082031 51.515625 -35.90625 L 75.140625 0 L 53.59375 0 L 32.578125 -32.046875 C 31.390625 -31.984375 30.257812 -31.929688 29.1875 -31.890625 C 28.113281 -31.859375 27.160156 -31.84375 26.328125 -31.84375 L 26.328125 0 L 6.765625 0 Z M 26.328125 -47.453125 C 28.679688 -47.523438 31.054688 -47.679688 33.453125 -47.921875 C 35.847656 -48.160156 38.035156 -48.660156 40.015625 -49.421875 C 41.992188 -50.191406 43.585938 -51.320312 44.796875 -52.8125 C 46.015625 -54.300781 46.65625 -56.296875 46.71875 -58.796875 C 46.71875 -61.984375 45.796875 -64.390625 43.953125 -66.015625 C 42.117188 -67.648438 39.660156 -68.765625 36.578125 -69.359375 C 33.492188 -69.953125 30.078125 -70.25 26.328125 -70.25 Z M 26.328125 -47.453125 "/></g></g></g><g fill="#545454" fill-opacity="1"><g transform="translate(203.150517, 172.170982)"><g><path d="M 77.21875 -2.609375 C 77.21875 -2.609375 76.4375 -2.257812 74.875 -1.5625 C 73.3125 -0.863281 70.722656 -0.171875 67.109375 0.515625 C 63.503906 1.210938 58.617188 1.5625 52.453125 1.5625 C 46.347656 1.5625 40.519531 0.414062 34.96875 -1.875 C 29.414062 -4.164062 24.453125 -7.335938 20.078125 -11.390625 C 15.710938 -15.453125 12.265625 -20.171875 9.734375 -25.546875 C 7.203125 -30.921875 5.9375 -36.660156 5.9375 -42.765625 C 5.9375 -48.941406 7.179688 -54.71875 9.671875 -60.09375 C 12.171875 -65.46875 15.601562 -70.203125 19.96875 -74.296875 C 24.34375 -78.390625 29.320312 -81.597656 34.90625 -83.921875 C 40.5 -86.242188 46.347656 -87.40625 52.453125 -87.40625 C 58.617188 -87.40625 63.503906 -87.054688 67.109375 -86.359375 C 70.722656 -85.671875 73.3125 -84.976562 74.875 -84.28125 C 76.4375 -83.59375 77.21875 -83.25 77.21875 -83.25 L 73.046875 -64 C 73.046875 -64 72.265625 -64.34375 70.703125 -65.03125 C 69.148438 -65.726562 67.050781 -66.421875 64.40625 -67.109375 C 61.769531 -67.804688 58.789062 -68.15625 55.46875 -68.15625 C 50.539062 -68.15625 46.289062 -67.390625 42.71875 -65.859375 C 39.144531 -64.335938 36.195312 -62.328125 33.875 -59.828125 C 31.550781 -57.335938 29.847656 -54.617188 28.765625 -51.671875 C 27.691406 -48.722656 27.15625 -45.828125 27.15625 -42.984375 C 27.15625 -40.066406 27.691406 -37.132812 28.765625 -34.1875 C 29.847656 -31.238281 31.550781 -28.515625 33.875 -26.015625 C 36.195312 -23.515625 39.144531 -21.5 42.71875 -19.96875 C 46.289062 -18.445312 50.539062 -17.6875 55.46875 -17.6875 C 58.789062 -17.6875 61.769531 -18.03125 64.40625 -18.71875 C 67.050781 -19.414062 69.148438 -20.113281 70.703125 -20.8125 C 72.265625 -21.507812 73.046875 -21.859375 73.046875 -21.859375 Z M 77.21875 -2.609375 "/></g></g></g><g fill="#545454" fill-opacity="1"><g transform="translate(286.185944, 172.170982)"><g><path d="M 57.4375 -85.859375 L 92.203125 0 L 71.171875 0 L 64.734375 -17.171875 L 32.046875 -17.171875 L 25.8125 0 L 4.78125 0 L 39.328125 -85.859375 Z M 58.0625 -34.34375 L 48.28125 -59.3125 L 38.71875 -34.34375 Z M 58.0625 -34.34375 "/></g></g></g><g fill="#545454" fill-opacity="1"><g transform="translate(383.060607, 172.170982)"><g><path d="M 7.8125 0 L 7.8125 -85.859375 L 61.5 -41.625 L 61.703125 -85.859375 L 81.265625 -85.859375 L 81.265625 0 L 27.375 -44.125 L 27.375 0 Z M 7.8125 0 "/></g></g></g><g fill="#545454" fill-opacity="1"><g transform="translate(472.131189, 172.170982)"><g><path d="M 55.984375 -85.859375 L 55.984375 -24.25 C 55.984375 -15.851562 53.660156 -9.453125 49.015625 -5.046875 C 44.367188 -0.640625 37.773438 1.5625 29.234375 1.5625 C 25.148438 1.5625 21.351562 1.472656 17.84375 1.296875 C 14.34375 1.128906 11.535156 0.957031 9.421875 0.78125 C 7.304688 0.601562 6.25 0.515625 6.25 0.515625 L 12.484375 -18.21875 C 12.484375 -18.21875 13.296875 -18.128906 14.921875 -17.953125 C 16.554688 -17.773438 18.484375 -17.597656 20.703125 -17.421875 C 22.921875 -17.253906 24.863281 -17.171875 26.53125 -17.171875 C 29.3125 -17.171875 31.65625 -18.109375 33.5625 -19.984375 C 35.46875 -21.859375 36.421875 -24.941406 36.421875 -29.234375 L 36.421875 -85.859375 Z M 55.984375 -85.859375 "/></g></g></g><g fill="#545454" fill-opacity="1"><g transform="translate(534.251676, 172.170982)"><g><path d="M 25.703125 -42.984375 C 25.703125 -38.535156 26.757812 -34.457031 28.875 -30.75 C 30.988281 -27.039062 33.847656 -24.054688 37.453125 -21.796875 C 41.066406 -19.546875 45.09375 -18.421875 49.53125 -18.421875 C 53.96875 -18.421875 57.972656 -19.546875 61.546875 -21.796875 C 65.117188 -24.054688 67.960938 -27.039062 70.078125 -30.75 C 72.203125 -34.457031 73.265625 -38.535156 73.265625 -42.984375 C 73.265625 -47.421875 72.203125 -51.492188 70.078125 -55.203125 C 67.960938 -58.910156 65.117188 -61.875 61.546875 -64.09375 C 57.972656 -66.320312 53.96875 -67.4375 49.53125 -67.4375 C 45.09375 -67.4375 41.066406 -66.320312 37.453125 -64.09375 C 33.847656 -61.875 30.988281 -58.910156 28.875 -55.203125 C 26.757812 -51.492188 25.703125 -47.421875 25.703125 -42.984375 Z M 6.25 -42.984375 C 6.25 -49.015625 7.359375 -54.703125 9.578125 -60.046875 C 11.796875 -65.390625 14.878906 -70.125 18.828125 -74.25 C 22.785156 -78.375 27.382812 -81.597656 32.625 -83.921875 C 37.863281 -86.242188 43.5 -87.40625 49.53125 -87.40625 C 55.570312 -87.40625 61.207031 -86.242188 66.4375 -83.921875 C 71.675781 -81.597656 76.253906 -78.375 80.171875 -74.25 C 84.097656 -70.125 87.171875 -65.390625 89.390625 -60.046875 C 91.609375 -54.703125 92.71875 -49.015625 92.71875 -42.984375 C 92.71875 -36.941406 91.609375 -31.234375 89.390625 -25.859375 C 87.171875 -20.484375 84.097656 -15.75 80.171875 -11.65625 C 76.253906 -7.5625 71.675781 -4.332031 66.4375 -1.96875 C 61.207031 0.382812 55.570312 1.5625 49.53125 1.5625 C 43.5 1.5625 37.863281 0.382812 32.625 -1.96875 C 27.382812 -4.332031 22.785156 -7.5625 18.828125 -11.65625 C 14.878906 -15.75 11.796875 -20.484375 9.578125 -25.859375 C 7.359375 -31.234375 6.25 -36.941406 6.25 -42.984375 Z M 6.25 -42.984375 "/></g></g></g></svg>