<?xml version="1.0" ?>

<!DOCTYPE svg PUBLIC '-//W3C//DTD SVG 1.1//EN' 'http://www.w3.org/Graphics/SVG/1.1/DTD/svg11.dtd'>

<!-- Uploaded to: SVG Repo, www.svgrepo.com, Generator: SVG Repo Mixer Tools -->
<svg width="800px" height="800px" viewBox="0 0 32 32" enable-background="new 0 0 32 32" version="1.1"
    xml:space="preserve" xmlns="http://www.w3.org/2000/svg" xmlns:xlink="http://www.w3.org/1999/xlink">

    <g id="Layer_2" />

    <g id="Layer_3" />

    <g id="Layer_4" />

    <g id="Layer_5" />

    <g id="Layer_6" />

    <g id="Layer_7" />

    <g id="Layer_8" />

    <g id="Layer_9" />

    <g id="Layer_10" />

    <g id="Layer_11" />

    <g id="Layer_12" />

    <g id="Layer_13" />

    <g id="Layer_14" />

    <g id="Layer_15" />

    <g id="Layer_16" />

    <g id="Layer_17" />

    <g id="Layer_18" />

    <g id="Layer_19">

        <g>

            <path d="M16,8c-0.5522,0-1-0.4478-1-1V2c0-0.5522,0.4478-1,1-1s1,0.4478,1,1v5C17,7.5522,16.5522,8,16,8z"
                fill="currentColor" />

        </g>

        <g>

            <path d="M11,8c-0.5522,0-1-0.4478-1-1V2c0-0.5522,0.4478-1,1-1s1,0.4478,1,1v5C12,7.5522,11.5522,8,11,8z"
                fill="currentColor" />

        </g>

        <g>

            <path d="M21,8c-0.5527,0-1-0.4478-1-1V2c0-0.5522,0.4473-1,1-1s1,0.4478,1,1v5C22,7.5522,21.5527,8,21,8z"
                fill="currentColor" />

        </g>

        <g>

            <path d="M16,31c-0.5522,0-1-0.4478-1-1v-5c0-0.5522,0.4478-1,1-1s1,0.4478,1,1v5C17,30.5522,16.5522,31,16,31z"
                fill="currentColor" />

        </g>

        <g>

            <path d="M11,31c-0.5522,0-1-0.4478-1-1v-5c0-0.5522,0.4478-1,1-1s1,0.4478,1,1v5C12,30.5522,11.5522,31,11,31z"
                fill="currentColor" />

        </g>

        <g>

            <path d="M21,31c-0.5527,0-1-0.4478-1-1v-5c0-0.5522,0.4473-1,1-1s1,0.4478,1,1v5C22,30.5522,21.5527,31,21,31z"
                fill="currentColor" />

        </g>

        <g>

            <path d="M30,17h-5c-0.5527,0-1-0.4478-1-1s0.4473-1,1-1h5c0.5527,0,1,0.4478,1,1S30.5527,17,30,17z"
                fill="currentColor" />

        </g>

        <g>

            <path d="M30,12h-5c-0.5527,0-1-0.4478-1-1s0.4473-1,1-1h5c0.5527,0,1,0.4478,1,1S30.5527,12,30,12z"
                fill="currentColor" />

        </g>

        <g>

            <path d="M30,22h-5c-0.5527,0-1-0.4478-1-1s0.4473-1,1-1h5c0.5527,0,1,0.4478,1,1S30.5527,22,30,22z"
                fill="currentColor" />

        </g>

        <g>

            <path d="M7,17H2c-0.5522,0-1-0.4478-1-1s0.4478-1,1-1h5c0.5522,0,1,0.4478,1,1S7.5522,17,7,17z"
                fill="currentColor" />

        </g>

        <g>

            <path d="M7,12H2c-0.5522,0-1-0.4478-1-1s0.4478-1,1-1h5c0.5522,0,1,0.4478,1,1S7.5522,12,7,12z"
                fill="currentColor" />

        </g>

        <g>

            <path d="M7,22H2c-0.5522,0-1-0.4478-1-1s0.4478-1,1-1h5c0.5522,0,1,0.4478,1,1S7.5522,22,7,22z"
                fill="currentColor" />

        </g>

        <g>

            <path
                d="M23,26H9c-1.6543,0-3-1.3457-3-3V9c0-1.6543,1.3457-3,3-3h14c1.6543,0,3,1.3457,3,3v14    C26,24.6543,24.6543,26,23,26z M9,8C8.4487,8,8,8.4487,8,9v14c0,0.5513,0.4487,1,1,1h14c0.5518,0,1-0.4487,1-1V9    c0-0.5513-0.4482-1-1-1H9z"
                fill="#c2940a" />

        </g>

        <g>

            <path
                d="M19,23h-6c-0.5522,0-1-0.4478-1-1v-1c0-0.5513-0.4487-1-1-1h-1c-0.5522,0-1-0.4478-1-1v-6    c0-0.5522,0.4478-1,1-1h1c0.5513,0,1-0.4487,1-1v-1c0-0.5522,0.4478-1,1-1h6c0.5527,0,1,0.4478,1,1v1c0,0.5513,0.4482,1,1,1h1    c0.5527,0,1,0.4478,1,1v6c0,0.5522-0.4473,1-1,1h-1c-0.5518,0-1,0.4487-1,1v1C20,22.5522,19.5527,23,19,23z M14,21h4    c0-1.6543,1.3457-3,3-3v-4c-1.6543,0-3-1.3457-3-3h-4c0,1.6543-1.3457,3-3,3v4C12.6543,18,14,19.3457,14,21z"
                fill="currentColor" />

        </g>

    </g>

    <g id="Layer_20" />

    <g id="Layer_21" />

    <g id="Layer_22" />

    <g id="Layer_23" />

    <g id="Layer_24" />

    <g id="Layer_25" />

    <g id="Layer_26" />

</svg>